# xmcd
#
# Track frame offsets:
#	150
#	12719
#	25711
#	37179
#	47028
#	60020
#	77737
#	89569
#	98822
#	109778
#	120577
#	135854
#	148812
#	158505
#	171363
#	183772
#	195111
#	210211
#
# Disc length: 2940 seconds
#
# Revision: 1
# Processed by: cddbd v1.5.2PL0 Copyright (c) Steve Scherf et al.
# Submitted via: audiograbber 1.83.01
#
DISCID=dd0b7a12
DTITLE=Various Artist - Ohrwürmer - Cowboy and Western Hits - CD2
DYEAR=2017
DGENRE=Country
TTITLE0=Buck Owens and His Buckaroos - Louisiana Man
TTITLE1=Claude King - Tiger Woman
TTITLE2=Johnny Lee - Candy Store
TTITLE3=John Anderson - Mississippi Rain Storm
TTITLE4=Ennio Morricone Orchestra - Django
TTITLE5=Johnny Nicholas - Mama, Talk To Your Daughter
TTITLE6=Jimmy C. Newman - Dead Skunk In The Middle Of The Road
TTITLE7=Charley Pride - Kiss An Angel Good Mornin'
TTITLE8=Johnny Cash - Oh, Lonesome Me
TTITLE9=Roger Miller - The King Of The Road
TTITLE10=Freddy Fender - La Paloma
TTITLE11=Bobby Bare - Detroit City
TTITLE12=Ersel Hickey - Blue Birds Over The Mountain
TTITLE13=Kenny Rogers - Ruby, Don't Take Your Love To Town
TTITLE14=Jerry Wallace - In The Misty Moonlight
TTITLE15=James Darren - Help Me Make It Through The Night
TTITLE16=Sammy's Saloon - Highway Calling
TTITLE17=Gene Simmons - Way Down Yonder In Baton Rouge
EXTD=
EXTT0=
EXTT1=
EXTT2=
EXTT3=
EXTT4=
EXTT5=
EXTT6=
EXTT7=
EXTT8=
EXTT9=
EXTT10=
EXTT11=
EXTT12=
EXTT13=
EXTT14=
EXTT15=
EXTT16=
EXTT17=
PLAYORDER=
